Coordinates
version=1
nRows=65
nColumns=12
inDegrees=yes

Units are S.I. units (second, meters, Newtons, ...)
Angles are in degrees

endheader
time	SC_y	SC_z	SC_x	AC_y	AC_z	AC_x	GH_y	GH_z	GH_yy	EL_x	PS_y
       0.0              -24.21           26.2          42.22          44.61         -4.335          -14.9          162.7          5.471         -51.76          30.38          79.28
   0.03695              -24.21           26.2          42.22          44.61         -4.334         -14.89          162.7          5.471         -51.75          30.38          79.28
    0.0739              -24.21           26.2          42.21          44.61         -4.334         -14.89          162.7          5.471         -51.73          30.38          79.28
    0.1109              -24.21           26.2          42.21          44.61         -4.333         -14.89          162.7          5.471         -51.71          30.38          79.29
    0.1478              -24.21           26.2           42.2          44.61         -4.332         -14.89          162.7          5.471         -51.69          30.38          79.29
    0.1848              -24.22           26.2           42.2          44.61         -4.331         -14.89          162.7          5.472         -51.67          30.38          79.29
    0.2217              -24.22           26.2          42.19          44.61         -4.331         -14.89          162.7          5.472         -51.65          30.38           79.3
    0.2587              -24.22           26.2          42.18          44.61          -4.33         -14.88          162.7          5.472         -51.63          30.38           79.3
    0.2956              -24.22           26.2          42.18          44.61         -4.329         -14.88          162.7          5.472          -51.6          30.38          79.31
    0.3326              -24.23           26.2          42.17          44.61         -4.328         -14.88          162.7          5.472         -51.58          30.38          79.31
    0.3695              -24.23           26.2          42.16          44.61         -4.326         -14.88          162.7          5.472         -51.55          30.37          79.32
    0.4065              -24.23           26.2          42.15          44.61         -4.325         -14.88          162.7          5.472         -51.52          30.37          79.32
    0.4434              -24.24           26.2          42.14          44.61         -4.324         -14.87          162.7          5.472         -51.49          30.37          79.33
    0.4804              -24.24           26.2          42.13          44.61         -4.323         -14.87          162.7          5.473         -51.45          30.37          79.33
    0.5173              -24.24           26.2          42.12          44.61         -4.321         -14.87          162.7          5.473         -51.41          30.37          79.34
    0.5543              -24.25           26.2          42.11          44.61         -4.319         -14.86          162.7          5.473         -51.37          30.37          79.35
    0.5912              -24.25           26.2          42.09          44.61         -4.317         -14.86          162.7          5.473         -51.33          30.37          79.35
    0.6282              -24.26          26.21          42.08          44.61         -4.315         -14.86          162.7          5.473         -51.28          30.36          79.36
    0.6651              -24.27          26.21          42.06          44.61         -4.313         -14.85          162.7          5.473         -51.22          30.36          79.37
    0.7021              -24.27          26.21          42.04          44.61         -4.311         -14.85          162.7          5.474         -51.17          30.36          79.38
     0.739              -24.28          26.21          42.02          44.61         -4.308         -14.84          162.7          5.474          -51.1          30.36          79.39
     0.776              -24.29          26.21           42.0          44.61         -4.305         -14.83          162.7          5.474         -51.03          30.35           79.4
    0.8129               -24.3          26.21          41.98          44.61         -4.302         -14.83          162.6          5.475         -50.95          30.35          79.42
    0.8499              -24.31          26.21          41.95          44.61         -4.299         -14.82          162.6          5.475         -50.87          30.35          79.43
    0.8868              -24.32          26.22          41.92           44.6         -4.295         -14.81          162.6          5.475         -50.77          30.34          79.45
    0.9238              -24.33          26.22          41.89           44.6         -4.291          -14.8          162.6          5.476         -50.66          30.34          79.47
    0.9607              -24.34          26.22          41.85           44.6         -4.286         -14.79          162.6          5.476         -50.54          30.33          79.49
    0.9977              -24.36          26.22          41.81           44.6          -4.28         -14.78          162.6          5.477         -50.41          30.33          79.51
     1.035              -24.37          26.23          41.77           44.6         -4.274         -14.77          162.5          5.478         -50.25          30.32          79.54
     1.072              -24.39          26.23          41.71           44.6         -4.267         -14.76          162.5          5.478         -50.08          30.32          79.57
     1.109              -24.41          26.24          41.65           44.6         -4.259         -14.74          162.5          5.479         -49.88          30.31           79.6
     1.145              -24.44          26.24          41.58           44.6          -4.25         -14.72          162.5           5.48         -49.65           30.3          79.64
     1.182              -24.47          26.25           41.5           44.6         -4.239          -14.7          162.4          5.481         -49.39          30.29          79.69
     1.219               -24.5          26.25          41.41           44.6         -4.227         -14.67          162.4          5.483         -49.08          30.28          79.74
     1.256              -24.54          26.26           41.3           44.6         -4.212         -14.64          162.3          5.484         -48.73          30.26           79.8
     1.293              -24.59          26.27          41.18          44.59         -4.195         -14.61          162.3          5.486         -48.31          30.25          79.87
      1.33              -24.64          26.28          41.02          44.59         -4.175         -14.57          162.2          5.488         -47.81          30.23          79.96
     1.367              -24.71          26.29          40.84          44.59          -4.15         -14.52          162.1          5.491          -47.2           30.2          80.06
     1.404              -24.79          26.31          40.62          44.59         -4.121         -14.46          162.1          5.494         -46.48          30.17          80.18
     1.441              -24.89          26.33          40.35          44.58         -4.085         -14.38          161.9          5.498         -45.59          30.14          80.34
     1.478              -25.01          26.35          40.02          44.58         -4.041         -14.29          161.8          5.502          -44.5           30.1          80.52
     1.515              -25.16          26.38           39.6          44.57         -3.986         -14.18          161.6          5.508         -43.13          30.04          80.76
     1.552              -25.35          26.42          39.08          44.57         -3.916         -14.03          161.4          5.516         -41.41          29.98          81.05
     1.589              -25.59          26.46          38.42          44.56         -3.827         -13.85          161.1          5.525         -39.23          29.89          81.43
     1.626               -25.9          26.52          37.57          44.55         -3.714         -13.62          160.7          5.537         -36.43          29.78          81.91
     1.663               -26.3           26.6          36.48          44.53         -3.569         -13.32          160.3          5.553         -32.84          29.64          82.52
       1.7              -26.81           26.7          35.09          44.51         -3.383         -12.94          159.7          5.572         -28.25          29.46          83.31
     1.737              -27.45          26.82          33.33          44.49         -3.149         -12.46          158.9          5.597         -22.48          29.23           84.3
     1.774              -28.22          26.97           31.2          44.46         -2.864         -11.87          158.0          5.627         -15.45          28.95          85.51
     1.811              -29.13          27.15          28.73          44.43         -2.534          -11.2          156.9          5.662         -7.307          28.63           86.9
     1.848               -30.1          27.34          26.05          44.39         -2.177         -10.46          155.7            5.7          1.515          28.29          88.42
     1.885              -31.08          27.53          23.37          44.36          -1.82         -9.726          154.6          5.738          10.34          27.94          89.93
     1.921              -31.98           27.7           20.9          44.32          -1.49         -9.048          153.5          5.773          18.48          27.62          91.33
     1.958              -32.76          27.85          18.76          44.29         -1.205         -8.463          152.6          5.804          25.51          27.34          92.53
     1.995               -33.4          27.98          17.01          44.27        -0.9715         -7.983          151.8          5.828          31.28          27.11          93.52
     2.032               -33.9          28.08          15.62          44.25        -0.7857         -7.601          151.2          5.848          35.87          26.93          94.31
     2.069               -34.3          28.15          14.53          44.24        -0.6403         -7.302          150.7          5.864          39.46          26.79          94.92
     2.106              -34.61          28.21          13.68          44.23         -0.527         -7.069          150.4          5.876          42.26          26.68           95.4
     2.143              -34.85          28.26          13.01          44.22        -0.4384         -6.887          150.1          5.885          44.44           26.6          95.78
      2.18              -35.04           28.3          12.49          44.21        -0.3687         -6.744          149.9          5.892          46.16          26.53          96.07
     2.217              -35.19          28.33          12.08           44.2        -0.3134         -6.631          149.7          5.898          47.53          26.47          96.31
     2.254              -35.32          28.35          11.75           44.2        -0.2691          -6.54          149.5          5.903          48.62          26.43           96.5
     2.291              -35.41          28.37          11.48           44.2        -0.2332         -6.466          149.4          5.907          49.51           26.4          96.65
     2.328              -35.49          28.38          11.26          44.19        -0.2038         -6.405          149.3           5.91          50.23          26.37          96.77
     2.365              -35.56           28.4          11.07          44.19        -0.1794         -6.355          149.2          5.913          50.83          26.34          96.88
